<svg id="visual" viewBox="0 0 900 600" width="900" height="600" xmlns="http://www.w3.org/2000/svg" xmlns:xlink="http://www.w3.org/1999/xlink" version="1.1"><path d="M0 355L21.5 365.5C43 376 86 397 128.8 410.5C171.7 424 214.3 430 257.2 423.3C300 416.7 343 397.3 385.8 384.3C428.7 371.3 471.3 364.7 514.2 374.3C557 384 600 410 642.8 412C685.7 414 728.3 392 771.2 392C814 392 857 414 878.5 425L900 436L900 601L878.5 601C857 601 814 601 771.2 601C728.3 601 685.7 601 642.8 601C600 601 557 601 514.2 601C471.3 601 428.7 601 385.8 601C343 601 300 601 257.2 601C214.3 601 171.7 601 128.8 601C86 601 43 601 21.5 601L0 601Z" fill="#17b979"></path><path d="M0 419L21.5 417.7C43 416.3 86 413.7 128.8 417.8C171.7 422 214.3 433 257.2 432.8C300 432.7 343 421.3 385.8 425.5C428.7 429.7 471.3 449.3 514.2 460.5C557 471.7 600 474.3 642.8 472.8C685.7 471.3 728.3 465.7 771.2 460.7C814 455.7 857 451.3 878.5 449.2L900 447L900 601L878.5 601C857 601 814 601 771.2 601C728.3 601 685.7 601 642.8 601C600 601 557 601 514.2 601C471.3 601 428.7 601 385.8 601C343 601 300 601 257.2 601C214.3 601 171.7 601 128.8 601C86 601 43 601 21.5 601L0 601Z" fill="#00a786"></path><path d="M0 439L21.5 445.2C43 451.3 86 463.7 128.8 470.8C171.7 478 214.3 480 257.2 481.5C300 483 343 484 385.8 484.5C428.7 485 471.3 485 514.2 484.7C557 484.3 600 483.7 642.8 480.5C685.7 477.3 728.3 471.7 771.2 475C814 478.3 857 490.7 878.5 496.8L900 503L900 601L878.5 601C857 601 814 601 771.2 601C728.3 601 685.7 601 642.8 601C600 601 557 601 514.2 601C471.3 601 428.7 601 385.8 601C343 601 300 601 257.2 601C214.3 601 171.7 601 128.8 601C86 601 43 601 21.5 601L0 601Z" fill="#009389"></path><path d="M0 529L21.5 525.3C43 521.7 86 514.3 128.8 516.2C171.7 518 214.3 529 257.2 528.5C300 528 343 516 385.8 507.7C428.7 499.3 471.3 494.7 514.2 491.5C557 488.3 600 486.7 642.8 489.2C685.7 491.7 728.3 498.3 771.2 500.3C814 502.3 857 499.7 878.5 498.3L900 497L900 601L878.5 601C857 601 814 601 771.2 601C728.3 601 685.7 601 642.8 601C600 601 557 601 514.2 601C471.3 601 428.7 601 385.8 601C343 601 300 601 257.2 601C214.3 601 171.7 601 128.8 601C86 601 43 601 21.5 601L0 601Z" fill="#047f83"></path><path d="M0 562L21.5 563.5C43 565 86 568 128.8 566.8C171.7 565.7 214.3 560.3 257.2 558.8C300 557.3 343 559.7 385.8 559.8C428.7 560 471.3 558 514.2 558.8C557 559.7 600 563.3 642.8 565C685.7 566.7 728.3 566.3 771.2 566C814 565.7 857 565.3 878.5 565.2L900 565L900 601L878.5 601C857 601 814 601 771.2 601C728.3 601 685.7 601 642.8 601C600 601 557 601 514.2 601C471.3 601 428.7 601 385.8 601C343 601 300 601 257.2 601C214.3 601 171.7 601 128.8 601C86 601 43 601 21.5 601L0 601Z" fill="#1e6a77"></path></svg>