<svg id="visual" viewBox="0 0 1300 600" width="1300" height="600" xmlns="http://www.w3.org/2000/svg" xmlns:xlink="http://www.w3.org/1999/xlink" version="1.1"><path d="M0 412L31 411.7C62 411.3 124 410.7 185.8 413C247.7 415.3 309.3 420.7 371.2 424.7C433 428.7 495 431.3 557 427.3C619 423.3 681 412.7 743 408.5C805 404.3 867 406.7 928.8 413.2C990.7 419.7 1052.3 430.3 1114.2 425.5C1176 420.7 1238 400.3 1269 390.2L1300 380L1300 601L1269 601C1238 601 1176 601 1114.2 601C1052.3 601 990.7 601 928.8 601C867 601 805 601 743 601C681 601 619 601 557 601C495 601 433 601 371.2 601C309.3 601 247.7 601 185.8 601C124 601 62 601 31 601L0 601Z" fill="#17b979"></path><path d="M0 452L31 451.2C62 450.3 124 448.7 185.8 445.7C247.7 442.7 309.3 438.3 371.2 443.3C433 448.3 495 462.7 557 465.3C619 468 681 459 743 458.5C805 458 867 466 928.8 458.5C990.7 451 1052.3 428 1114.2 420.2C1176 412.3 1238 419.7 1269 423.3L1300 427L1300 601L1269 601C1238 601 1176 601 1114.2 601C1052.3 601 990.7 601 928.8 601C867 601 805 601 743 601C681 601 619 601 557 601C495 601 433 601 371.2 601C309.3 601 247.7 601 185.8 601C124 601 62 601 31 601L0 601Z" fill="#00a786"></path><path d="M0 506L31 504.2C62 502.3 124 498.7 185.8 492.3C247.7 486 309.3 477 371.2 476C433 475 495 482 557 479.7C619 477.3 681 465.7 743 464.8C805 464 867 474 928.8 483C990.7 492 1052.3 500 1114.2 496C1176 492 1238 476 1269 468L1300 460L1300 601L1269 601C1238 601 1176 601 1114.2 601C1052.3 601 990.7 601 928.8 601C867 601 805 601 743 601C681 601 619 601 557 601C495 601 433 601 371.2 601C309.3 601 247.7 601 185.8 601C124 601 62 601 31 601L0 601Z" fill="#009389"></path><path d="M0 510L31 506.3C62 502.7 124 495.3 185.8 496.2C247.7 497 309.3 506 371.2 508.7C433 511.3 495 507.7 557 506.7C619 505.7 681 507.3 743 512.2C805 517 867 525 928.8 528C990.7 531 1052.3 529 1114.2 529.2C1176 529.3 1238 531.7 1269 532.8L1300 534L1300 601L1269 601C1238 601 1176 601 1114.2 601C1052.3 601 990.7 601 928.8 601C867 601 805 601 743 601C681 601 619 601 557 601C495 601 433 601 371.2 601C309.3 601 247.7 601 185.8 601C124 601 62 601 31 601L0 601Z" fill="#047f83"></path><path d="M0 537L31 543C62 549 124 561 185.8 558.8C247.7 556.7 309.3 540.3 371.2 540C433 539.7 495 555.3 557 555.5C619 555.7 681 540.3 743 537.8C805 535.3 867 545.7 928.8 549.2C990.7 552.7 1052.3 549.3 1114.2 549.3C1176 549.3 1238 552.7 1269 554.3L1300 556L1300 601L1269 601C1238 601 1176 601 1114.2 601C1052.3 601 990.7 601 928.8 601C867 601 805 601 743 601C681 601 619 601 557 601C495 601 433 601 371.2 601C309.3 601 247.7 601 185.8 601C124 601 62 601 31 601L0 601Z" fill="#1e6a77"></path></svg>